<svg width="28" height="22" fill="none" xmlns="http://www.w3.org/2000/svg"><g clip-path="url(#a)"><path d="M23.719 1.932A22.806 22.806 0 0 0 17.942.117c-.249.45-.54 1.055-.74 1.536a21.213 21.213 0 0 0-6.402 0c-.2-.48-.498-1.086-.749-1.536-2 .346-3.944.958-5.78 1.82C.614 7.461-.378 12.848.118 18.159c2.425 1.811 4.774 2.91 7.085 3.63a17.612 17.612 0 0 0 1.517-2.498 14.946 14.946 0 0 1-2.39-1.163c.2-.148.396-.303.586-.464 4.608 2.155 9.613 2.155 14.166 0 .19.16.386.314.585.464a14.86 14.86 0 0 1-2.393 1.165c.438.877.944 1.714 1.517 2.499 2.312-.72 4.664-1.82 7.09-3.633.58-6.156-.994-11.494-4.163-16.227zM9.349 14.893c-1.383 0-2.517-1.291-2.517-2.863s1.11-2.866 2.517-2.866c1.407 0 2.541 1.291 2.517 2.866.002 1.572-1.11 2.863-2.517 2.863zm9.302 0c-1.383 0-2.517-1.291-2.517-2.863s1.11-2.866 2.517-2.866c1.408 0 2.542 1.291 2.518 2.866 0 1.572-1.11 2.863-2.518 2.863z" fill="#292003"/></g><defs><clipPath id="a"><path fill="#fff" transform="translate(0 .117)" d="M0 0h28v21.766H0z"/></clipPath></defs></svg>