<svg width="28" height="24" fill="none" xmlns="http://www.w3.org/2000/svg"><path d="M28 3.354c-1.049.464-2.16.77-3.3.904a5.761 5.761 0 0 0 2.526-3.178 11.504 11.504 0 0 1-3.647 1.394A5.737 5.737 0 0 0 19.385.66a5.745 5.745 0 0 0-5.595 7.054A16.31 16.31 0 0 1 1.95 1.712 5.719 5.719 0 0 0 1.171 4.6a5.742 5.742 0 0 0 2.556 4.78 5.722 5.722 0 0 1-2.602-.718v.072a5.748 5.748 0 0 0 4.608 5.633 5.752 5.752 0 0 1-2.594.098 5.75 5.75 0 0 0 5.366 3.99 11.526 11.526 0 0 1-7.135 2.459c-.463 0-.92-.028-1.37-.08a16.26 16.26 0 0 0 8.806 2.58c10.566 0 16.344-8.753 16.344-16.344 0-.25-.005-.497-.016-.743A11.676 11.676 0 0 0 28 3.354z" fill="#fff"/></svg>